<svg xmlns="http://www.w3.org/2000/svg" xmlns:xlink="http://www.w3.org/1999/xlink" width="300" height="131.701" viewBox="0 0 300 131.701"><defs><linearGradient id="a" x1="0.177" y1="0.129" x2="0.805" y2="0.892" gradientUnits="objectBoundingBox"><stop offset="0" stop-color="#eff1f5"/><stop offset="1" stop-color="#c0cae9"/></linearGradient><linearGradient id="b" x1="0" y1="0.068" x2="0.8" y2="0.899" xlink:href="#a"/><linearGradient id="c" x1="0.154" y1="0.144" x2="0.799" y2="0.902" xlink:href="#a"/></defs><g transform="translate(-8286.774 -7738.807)"><circle cx="54.272" cy="54.272" r="54.272" transform="translate(8286.774 7754.273)" fill="url(#a)"/><circle cx="49.307" cy="49.307" r="49.307" transform="translate(8488.161 7761.487)" fill="url(#b)"/><circle cx="65.851" cy="65.851" r="65.851" transform="translate(8377.463 7738.807)" fill="url(#c)"/><path d="M8365.7,7854.876a33.669,33.669,0,0,1-11.993,27.9c-10.017,8.29-23.793,9-34.949,2.577a34.34,34.34,0,0,1-16.356-23.212c-2.5-13.1,3.346-26.841,13.939-34.767,8.931-6.683,20.185-6.952,29.793-1.53a40.028,40.028,0,0,1,18.637,23.71,28.391,28.391,0,0,1,.93,5.318m4.413-.47c-.979-12.615-9.38-23.758-19.881-30.32-5.912-3.695-12.666-6.288-19.722-5.614-9.372.9-17.171,6.52-22.66,13.936a40.33,40.33,0,0,0-7.887,25.158A35.843,35.843,0,0,0,8311,7882.26a41.45,41.45,0,0,0,9.2,6.566c27.194,14.431,51.673-11.653,49.907-34.42" transform="translate(-7.175 -43.357)" fill="#fff"/><path d="M8346.431,7871.2c-3.019.3-5.95.539-8.758.719,2.55-5.316,3.312-6.861,7.485-14.477.23,4.488.651,9.1,1.272,13.758m19.948,7.859q-.5-3.311-1.04-6.817-.264-1.709-.527-3.408c-2.883.455-5.754.869-8.586,1.24-1.568-10.8-2.643-21.326-3.184-30.476-2.444.319-4.854.6-7.2.837-10.56,17.018-14.51,23.385-18.945,34.824.022.158.047.316.071.474q.539,3.5,1.362,6.786c5.744-.008,12.516-.393,19.786-1.109.853,4.288,1.839,8.295,2.929,11.964,2.968-.292,6.021-.643,9.125-1.049-.8-3.7-1.576-7.734-2.321-12.035,2.815-.368,5.668-.78,8.531-1.231" transform="translate(-21.865 -54.931)" fill="#fff"/><path d="M8591.782,7820.857c-1.9,10.43-8.779,19.739-17.6,25.444-11.1,7.184-24.982,8.665-36.782,2.3a35.6,35.6,0,0,1-17.237-21.82,37.719,37.719,0,0,1,3.369-28.153,41.127,41.127,0,0,1,10.4-12.166c26.169-20.855,60.186,1.619,58.373,30.136a40.94,40.94,0,0,1-.521,4.254m4.521,1.11a39.718,39.718,0,0,0-8.094-31.673,41.3,41.3,0,0,0-29.043-15.485c-11.492-.862-23.652,5.308-31.44,13.491a43.54,43.54,0,0,0-11.849,25.989,39.208,39.208,0,0,0,8.148,27.588,42.542,42.542,0,0,0,5.493,5.77c26.53,23.166,62.021.267,66.784-25.679" transform="translate(-124.773 -19.576)" fill="#fff"/><path d="M8581.3,7834.483c-.915,5.706-3.961,8.639-9.31,8.97-5.261-.816-7.989-4.015-8.34-9.782q.126-3.737.418-7.531c.389-5.05.986-9.885,1.763-14.452,2.683-9.842,13.038-9.989,16.336-4.1a9.2,9.2,0,0,1,.979,4.9c-.481,4.581-.923,9.423-1.312,14.474q-.293,3.789-.533,7.524m11.17.824q.312-3.726.6-7.52c.391-5.049.732-9.9,1.026-14.494.13-11.054-7.372-18.765-18.247-18.75-9.7.918-16.986,7.273-19.486,17a115.878,115.878,0,0,0-2.012,14.449q-.294,3.789-.354,7.531c.607,20.1,21.447,26.43,32.8,14.391a21.1,21.1,0,0,0,5.666-12.6" transform="translate(-145.632 -30.375)" fill="#fff"/><path d="M8856.724,7882.485c-4.4,11.654-17.294,21.826-33.434,18.721-24.06-7.346-25.957-40.053-3.075-53.024,22.021-12.484,43.141,9.434,37.518,31.125-.251.97-.655,2.243-1.009,3.179m1.73.605a32.043,32.043,0,0,0-4.973-31.583,28.008,28.008,0,0,0-16.487-9.937c-5.4-.907-11.175.33-16.1,2.586a35.364,35.364,0,0,0-19.091,22.38,31.145,31.145,0,0,0,7.058,29.088c15.164,17.107,42.082,7.28,49.6-12.534" transform="translate(-280.075 -55.84)" fill="#fff"/><path d="M8850.983,7890.443c-2.439-.6-4.942-1.23-7.479-1.9,4.972-4.357,6.521-5.759,10.317-9.54-.652,3.305-1.461,6.665-2.428,10.037q-.2.7-.41,1.4m10.348,11.038a69.5,69.5,0,0,0,3.029-8.048l-.266-.053c-1.8-.358-3.681-.756-5.629-1.189q.214-.694.415-1.4a85.306,85.306,0,0,0,3.371-24.7c-1.922-.426-3.918-.891-5.966-1.387-3.629,4.441-7.381,9.033-24.443,23.214q-.861,2.993-1.687,5.834c6.126,1.748,12.279,3.386,18.074,4.8a97.23,97.23,0,0,1-4.176,9.453c2.339.571,4.614,1.1,6.8,1.587a72.655,72.655,0,0,0,4.708-9.328c1.907.424,3.75.814,5.51,1.166l.262.051" transform="translate(-296.128 -68.611)" fill="#fff"/></g></svg>